<?xml version="1.0" encoding="UTF-8"?><svg id="Capa_1" xmlns="http://www.w3.org/2000/svg" viewBox="0 0 30 30"><defs><style>.cls-1{fill:#fff;}</style></defs><path class="cls-1" d="M15,0C6.7,0,0,6.7,0,15s6.7,15,15,15,15-6.7,15-15S23.3,0,15,0ZM21.9,21.6c-.3.4-.8.6-1.3.3-3.5-2.2-8-2.6-13.2-1.4-.5.1-1-.2-1.1-.7-.1-.5.2-1,.7-1.1,5.7-1.3,10.6-.7,14.6,1.7.4.3.6.8.3,1.3ZM23.7,17.6c-.3.6-1.1.7-1.6.4-4-2.5-10.2-3.2-14.9-1.7-.6.2-1.3-.2-1.5-.8-.2-.6.2-1.3.8-1.5,5.4-1.7,12.2-.9,16.9,2,.5.3.7,1.1.4,1.6ZM23.9,13.3c-4.8-2.9-12.8-3.1-17.4-1.7-.7.2-1.5-.2-1.7-.9-.2-.7.2-1.5.9-1.8,5.3-1.6,14.1-1.3,19.7,2,.7.4.9,1.3.5,1.9-.4.7-1.3.9-1.9.5Z"/></svg>