<?xml version="1.0" encoding="UTF-8"?><svg id="Capa_1" xmlns="http://www.w3.org/2000/svg" viewBox="0 0 30 30"><defs><style>.cls-1{fill:#fff;}</style></defs><path class="cls-1" d="M15,2.7c4,0,4.5,0,6.1,0,1.5,0,2.3.3,2.8.5.7.3,1.2.6,1.7,1.1.5.5.8,1,1.1,1.7.2.5.4,1.3.5,2.8,0,1.6,0,2.1,0,6.1s0,4.5,0,6.1c0,1.5-.3,2.3-.5,2.8-.3.7-.6,1.2-1.1,1.7-.5.5-1,.8-1.7,1.1-.5.2-1.3.4-2.8.5-1.6,0-2.1,0-6.1,0s-4.5,0-6.1,0c-1.5,0-2.3-.3-2.8-.5-.7-.3-1.2-.6-1.7-1.1-.5-.5-.8-1-1.1-1.7-.2-.5-.4-1.3-.5-2.8,0-1.6,0-2.1,0-6.1s0-4.5,0-6.1c0-1.5.3-2.3.5-2.8.3-.7.6-1.2,1.1-1.7.5-.5,1-.8,1.7-1.1.5-.2,1.3-.4,2.8-.5,1.6,0,2.1,0,6.1,0M15,0c-4.1,0-4.6,0-6.2,0-1.6,0-2.7.3-3.6.7-1,.4-1.8.9-2.7,1.7-.8.8-1.3,1.7-1.7,2.7-.4,1-.6,2-.7,3.6,0,1.6,0,2.1,0,6.2s0,4.6,0,6.2c0,1.6.3,2.7.7,3.6.4,1,.9,1.8,1.7,2.7.8.8,1.7,1.3,2.7,1.7,1,.4,2,.6,3.6.7,1.6,0,2.1,0,6.2,0s4.6,0,6.2,0c1.6,0,2.7-.3,3.6-.7,1-.4,1.8-.9,2.7-1.7.8-.8,1.3-1.7,1.7-2.7.4-1,.6-2,.7-3.6,0-1.6,0-2.1,0-6.2s0-4.6,0-6.2c0-1.6-.3-2.7-.7-3.6-.4-1-.9-1.8-1.7-2.7-.8-.8-1.7-1.3-2.7-1.7-1-.4-2-.6-3.6-.7-1.6,0-2.1,0-6.2,0h0Z"/><path class="cls-1" d="M15,7.3c-4.3,0-7.7,3.4-7.7,7.7s3.4,7.7,7.7,7.7,7.7-3.4,7.7-7.7-3.4-7.7-7.7-7.7ZM15,20c-2.8,0-5-2.2-5-5s2.2-5,5-5,5,2.2,5,5-2.2,5-5,5Z"/><circle class="cls-1" cx="23" cy="7" r="1.8"/></svg>