<?xml version="1.0" encoding="UTF-8"?><svg id="Capa_1" xmlns="http://www.w3.org/2000/svg" viewBox="0 0 100 50.6"><defs><style>.cls-1{fill:#f84cab;}</style></defs><polygon class="cls-1" points="1.1 50.5 1.1 32.9 8 32.9 8 34.8 3.6 34.8 3.6 40.5 6.8 40.5 6.8 42.3 3.6 42.3 3.6 48.6 8 48.6 8 50.5 1.1 50.5"/><polygon class="cls-1" points="9.6 50.5 9.6 32.9 11.4 32.9 15.8 43.8 15.8 32.9 18.3 32.9 18.3 50.5 16.5 50.5 12.1 38.8 12.1 50.5 9.6 50.5"/><path class="cls-1" d="M24.9,50.5v-17.5h4.4c2.9,0,4.4,1.7,4.4,5s-.4,2.5-1.1,3.3c-.8.7-1.8,1.1-3.2,1.1h-1.9v8.1h-2.5ZM27.4,40.5h.6c.6,0,1,0,1.4,0,.4,0,.7-.2,1-.4.3-.2.5-.4.6-.8.1-.3.2-.8.2-1.3s0-1.1-.1-1.5c0-.4-.3-.7-.5-1-.2-.2-.6-.4-.9-.5-.4,0-.9-.1-1.5-.1h-.6v5.6Z"/><path class="cls-1" d="M39.6,50.6c-.9,0-1.6-.1-2.3-.4-.6-.3-1.1-.7-1.5-1.2-.4-.5-.6-1.1-.8-1.8-.2-.7-.3-1.5-.3-2.4v-6.4c0-.9,0-1.7.3-2.4.2-.7.4-1.3.8-1.8.4-.5.9-.9,1.5-1.1.6-.3,1.4-.4,2.3-.4,1.7,0,2.9.5,3.7,1.5.8,1,1.1,2.4,1.1,4.2v6.4c0,.9,0,1.7-.3,2.4-.2.7-.4,1.3-.8,1.8-.4.5-.9.9-1.5,1.2-.6.3-1.4.4-2.3.4M37.7,47.8c.3.5.9.8,1.8.8s1.5-.3,1.8-.8.5-1.3.5-2.3v-7.6c0-1-.2-1.8-.5-2.3-.3-.5-.9-.8-1.8-.8s-1.5.3-1.8.8c-.3.5-.5,1.3-.5,2.3v7.6c0,1,.2,1.8.5,2.3"/><polygon class="cls-1" points="48.4 50.5 48.4 35.2 45.3 35.2 45.3 32.9 54.1 32.9 54.1 35.2 50.9 35.2 50.9 50.5 48.4 50.5"/><polygon class="cls-1" points="55.3 50.5 55.3 32.9 62.2 32.9 62.2 34.8 57.8 34.8 57.8 40.5 60.9 40.5 60.9 42.3 57.8 42.3 57.8 48.6 62.2 48.6 62.2 50.5 55.3 50.5"/><polygon class="cls-1" points="63.7 50.5 63.7 32.9 65.6 32.9 70 43.8 70 32.9 72.5 32.9 72.5 50.5 70.7 50.5 66.2 38.8 66.2 50.5 63.7 50.5"/><path class="cls-1" d="M79.5,50.6c-.7,0-1.4-.1-1.9-.3-.6-.2-1-.5-1.4-.9-.4-.4-.7-.8-.9-1.4-.2-.5-.4-1.1-.5-1.8,0-.6-.1-1.3-.1-2.1v-5c0-.8,0-1.5.1-2.1,0-.6.2-1.2.5-1.8.2-.6.5-1,.9-1.4.4-.4.8-.7,1.4-.9.6-.2,1.2-.3,1.9-.3s1.5.1,2.1.4c.6.2,1.1.6,1.4,1.1.4.5.6,1,.8,1.6.2.6.3,1.3.3,2.2,0,.1,0,.3,0,.6h-2.5v-.6c0-.3,0-.6,0-.9s0-.5-.1-.8c0-.3-.1-.5-.2-.7-.1-.2-.2-.3-.4-.5s-.3-.3-.6-.3c-.2,0-.5-.1-.8-.1s-.8,0-1,.2c-.3.1-.5.3-.7.5s-.3.5-.4.8c0,.3-.1.7-.2,1,0,.3,0,.7,0,1.2v6.3c0,.4,0,.8,0,1.1,0,.3.1.7.2,1,.1.3.2.6.4.8.2.2.4.4.7.6s.6.2,1,.2.7,0,1-.2c.3-.1.5-.3.6-.5.2-.2.3-.5.4-.8,0-.3.1-.7.2-1,0-.3,0-.7,0-1.1v-.6h2.5v.6c0,.9,0,1.7-.2,2.4-.2.7-.4,1.3-.8,1.8-.4.5-.8.9-1.4,1.2-.6.3-1.3.4-2.2.4"/><rect class="cls-1" x="85.9" y="32.9" width="2.5" height="17.5"/><path class="cls-1" d="M90,50.5l3.8-17.5h2.5l3.8,17.5h-2.5l-.9-4.4h-3.1l-.9,4.4h-2.5ZM93.7,44.2h2.5l-1.3-7.5-1.3,7.5Z"/><path class="cls-1" d="M30,32.1c-3.4-.1-4.3-3.7-4.3-8.1s1.2-11.2,1.2-14.8-.1-2.1-.5-2.6c-4.3.1-7.3,15.3-8.2,19.1,0,.3-.8.7-1.6.7-1.1,0-1.4-.6-1.4-2.4s.1-6.2.1-10.4c0-6.3-.3-12.8-2.2-13-2.4.5-4.3,4.2-5.6,8.1-2.1,6-3.5,14.2-4.1,20.5,0,.6-.5.9-1.1.9s-1-.3-1.1-.9c-.7-4.4-1.2-8.7-1.2-13.3S.3,7.9,1,3.5c0-.9,1.1-1.3,2-1.3s1.7.4,1.7,1.2v.2c-1.1,5.8-1.5,12.1-1.5,18.3v2.8c.8-5.5,2-11.6,3.7-16.4C8.4,3.8,10.4.2,13.5,0c4.2,0,5,7.8,5,14.4s-.2,6.6-.3,8c.8-3.3,3.7-16.4,8.2-16.4,2.5.2,3.1,3,3.1,8.2s-.6,10-.6,13.6.2,3.7,1,3.7c2.6-.6,5.7-12.8,7.2-15.9,0-.1.2-.2.3-.2.2,0,.3.1.3.3h0c-1.5,3.3-5,16.4-7.7,16.4h0Z"/><path class="cls-1" d="M45.2,27.3c-2.1,0-2.5-4.8-2.5-8v-2.4c-.3,1.4-1.8,7.1-3.4,7.1-1.9-.2-2.3-3.4-2.3-6.1s.1-3.1.2-3.9c0-.7.7-1,1.3-1,.8,0,1.5.3,1.5.9-.1.9-1,5.4-1,8.2s0,1.2.2,1.3c1.3,0,3.6-9.3,3.7-10.1,0-.6.8-.9,1.5-.9.9,0,1.5.3,1.5,1,0,1.1-1.2,7.6-1.2,11.4s0,1.6.3,1.7c2-.1,4.3-8.9,4.9-11,0-.2.1-.3.3-.3s.3,0,.3.3h0c-.6,2.4-3,11.7-5.5,11.7h0Z"/><path class="cls-1" d="M44.5,31.6v-.2c.1-3.5,3.2-8,6.1-10.8-.1-3-.4-5.7-.7-7.1h0c0-.6.5-1,1.1-1.2.1,0,.3,0,.4,0,.4,0,.7.1.9.5.4.9.9,4.3,1,5.5,1.5-1.2,3.2-2.1,5-2.8h.1c.1,0,.2,0,.3.1h0c0,.3,0,.4-.2.4-1.9.8-3.6,1.8-5.2,3v2.1c0,4.8-.8,12.7-5.4,13.5-.3,0-.5,0-.8,0-1.7,0-2.7-1.1-2.7-2.9M50.7,24.3c0-.9,0-1.8,0-2.8-2.6,2.6-5.1,6.6-5.5,9.9v.3c0,1.3.7,2.1,1.7,2.1,1.6,0,3.9-2.5,3.9-9.5M49.4,9.4c0-.3.1-.6.3-.8.2-.2.5-.3.9-.3s.6.1.8.3c.2.2.3.5.3.8,0,.6-.5,1.2-1.2,1.2s-1.2-.5-1.2-1.2"/><path class="cls-1" d="M71,27.1c-1.3,0-1.5-.9-1.6-2.4,0-2.6,1.3-7.8,1.3-9.3,0-.8-.4-.8-1.2-.9-1.4,3.4-4,8.6-7.1,8.7-3,0-4.3-2.6-4.3-5.3s1.5-5.9,3.9-5.9h.3c.5,0,1.8.5,1.9,1.6,0,1.3-1.9,3.6-3.2,3.6,0,.4-.1,1.2-.1,2.1,0,1.8.3,3.1,1.5,3.1,2.8,0,5.5-5.5,6.6-8.2-.6-.3-1.5-1-1.5-3.4s.6-4.4,2.4-4.4c1,0,1.6.6,1.6,2.3s-.3,2.7-1.1,4c1.5.3,3,.3,3,2.1,0,2.7-2.4,9.4-2.4,11.2s0,.4.2.4c2.4,0,5.3-8.3,6.2-10.8,0-.1.2-.2.3-.2s.3,0,.3.3h0c-.9,2.6-3.9,11.3-6.8,11.4h-.2ZM63.4,13.6c0-.4-.3-.7-.7-.8-.6,0-1.4,1.8-1.7,3.8.8,0,2.4-1.8,2.4-3M70.7,8.7c0-1.1-.3-1.5-.9-1.6-.9,0-1.4,1.6-1.4,3s.4,2.4,1.2,2.5c.7-1.1,1.1-2.8,1.1-3.9"/><path class="cls-1" d="M81.2,23.2c-3,0-4.3-2.6-4.3-5.3s1.4-5.8,3.9-5.8h.3c.5,0,1.9.5,1.9,1.6s-1.9,3.6-3.2,3.6c0,.4-.1,1.2-.1,2.1,0,1.8.3,3.1,1.6,3.1,3,0,5-4.6,5.8-6.9,0-.2.2-.2.3-.2.2,0,.4,0,.4.3-.9,2.8-3.4,7.3-6.3,7.5h-.2ZM82.3,13.7c0-.5-.3-.8-.8-.9-.6,0-1.3,1.8-1.7,3.8.8,0,2.4-1.8,2.5-2.9"/><path class="cls-1" d="M88.9,31.7c-1.3-.5-1.8-1.6-1.8-2.9,0-2.9,2.3-6.8,5.4-9.3-2-1.1-5.1-1.8-5.4-3.7,0-.2,0-.4,0-.5,0-2.8,3.3-4.8,5.5-4.9,1.4,0,2.4.9,2.4,2.2s0,1-.4,1.5c-.1.3-.4.4-.6.4s-.2,0-.3,0c0,0-.2-.2-.2-.4s0-.4.2-.6c.4-.4.5-.9.5-1.2,0-.6-.5-1-1.3-1.1h-.2c-1.4,0-3.3,1.8-3.6,3v.2c0,1.5,3.1,2.5,5.4,3.8,1.6-1,4-2.2,5-2.7,0,0,.2,0,.2,0,0,0,.1,0,.2.1h0c0,.2,0,.3-.1.3-1.2.6-3.1,1.6-4.7,2.7,1.5,1,2.2,2.7,2.2,4.6,0,4.1-3,8.9-6.6,8.9s-1.2-.1-1.7-.4M95.4,24c0-1.8-.7-3.4-2.3-4.2-2.8,2-5.4,6.2-5.4,9s.4,1.9,1.4,2.4c.4.2.8.2,1.2.2,2.7,0,5.2-4,5.2-7.4"/></svg>